<svg xmlns="http://www.w3.org/2000/svg" viewBox="0 0 47.66 47.66"><defs><style>.cls-1{fill:#7f7f7f;}.cls-2{fill:#fff;}</style></defs><g id="Layer_2" data-name="Layer 2"><g id="Layer_3" data-name="Layer 3"><circle class="cls-1" cx="23.83" cy="23.83" r="23.83"/></g><g id="ELEMENTS"><path class="cls-2" d="M30.4,15.86a1.46,1.46,0,1,0,1.45,1.45A1.46,1.46,0,0,0,30.4,15.86Z"/><path class="cls-2" d="M23.93,17.72A6.11,6.11,0,1,0,30,23.83,6.12,6.12,0,0,0,23.93,17.72Zm0,10a3.91,3.91,0,1,1,3.92-3.91A3.92,3.92,0,0,1,23.93,27.74Z"/><path class="cls-2" d="M28.78,36.23h-9.9a7.46,7.46,0,0,1-7.45-7.45v-9.9a7.46,7.46,0,0,1,7.45-7.45h9.9a7.46,7.46,0,0,1,7.45,7.45v9.9A7.46,7.46,0,0,1,28.78,36.23Zm-9.9-22.47a5.13,5.13,0,0,0-5.12,5.12v9.9a5.13,5.13,0,0,0,5.12,5.12h9.9a5.13,5.13,0,0,0,5.12-5.12v-9.9a5.13,5.13,0,0,0-5.12-5.12Z"/></g></g></svg>